<svg xmlns="http://www.w3.org/2000/svg" width="1145.28" height="254.33" viewBox="0 0 1145.28 254.33"><title>logo-dark</title><polygon points="259.44 23.88 259.44 250.29 212.85 250.29 212.85 156.18 46.6 156.18 46.6 250.29 0 250.29 0 23.88 46.6 23.88 46.6 117.35 212.85 117.35 212.85 23.88 259.44 23.88"/><path d="M510.16,192.56c-6,35.94-38.94,61.92-98.06,61.92-66.72,0-112.81-33-112.81-90.65,0-57.09,44.25-91.35,111.61-91.35,68,0,103.06,31.88,100.14,98H345.17C348.49,199.25,371.66,220,411,220c28.89,0,49.54-11.17,55.21-27.42Z" transform="translate(-0.22 -0.15)"/><path d="M347.28,145.51H465.91c-2.69-23.67-23.14-38.42-57.31-38.42C375.1,107.09,353.35,123.62,347.28,145.51Z" transform="translate(-0.22 -0.15)" fill="#fff"/><polygon points="730.56 76.38 646.67 250.29 603.9 250.29 522 76.38 571.81 76.38 625.38 201.63 680.64 76.38 730.56 76.38"/><rect x="756.54" width="52.78" height="40.01"/><rect x="760.18" y="76.38" width="45.5" height="173.91"/><path d="M1051.53,144.14V250.43H1006V152.24c0-29.45-13.55-43-45.68-43-31.47,0-56.92,18.25-64.66,37.88V250.43h-45.5V76.53h45.5v50.06c9.27-28.09,37.4-54.11,80.76-54.11C1019.25,72.48,1051.53,94.85,1051.53,144.14Z" transform="translate(-0.22 -0.15)"/><rect x="1092.5" y="210.24" width="52.78" height="40.01" fill="#8670ef"/></svg>